<svg version="1.2" xmlns="http://www.w3.org/2000/svg" viewBox="0 0 492 492" width="492" height="492">
	<style>
		.s0 { opacity: 1;fill: #d7ac3a } 
	</style>
	<path id="Path 0" fill-rule="evenodd" class="s0" d="m249 11.04c1.38-0.01 4.91 0.77 7.85 1.72 2.94 0.96 6.95 3.09 8.9 4.74 1.99 1.68 4.6 5.42 5.93 8.5 1.41 3.28 2.36 7.41 2.35 10.25-0.02 2.61-0.59 6.86-1.28 9.44-0.86 3.25-2.65 6.11-5.79 9.25-2.5 2.51-6.24 5.91-12.09 10.56l1.39 11.5c0.88 7.27 2.1 12.76 3.32 14.93 1.27 2.27 2.93 3.66 4.92 4.11 1.65 0.38 6.15 1.26 10 1.96 3.85 0.7 10.15 2.39 14 3.75 3.85 1.37 9.93 4.4 13.5 6.74 5.3 3.47 7.7 4.38 13 4.95 3.57 0.38 12.8 1.75 20.5 3.04 7.7 1.29 18.95 3.75 25 5.47 6.05 1.72 13.7 4.08 17 5.25 3.3 1.17 8.25 3.23 11 4.57 2.75 1.34 8.6 4.52 13 7.05 5.75 3.31 11.09 7.71 19.01 15.64 6.05 6.07 12.52 13.29 14.37 16.04 1.85 2.75 4.94 8.15 6.87 12 1.92 3.85 4.62 10.15 6 14 1.37 3.85 3.52 9.03 4.77 11.5 2.03 4.04 3.2 4.96 11.53 9 6.33 3.08 10.34 5.76 12.67 8.5 1.87 2.2 4.72 6.7 6.33 10 1.61 3.3 3.84 10.5 4.95 16 1.62 8 2.03 13.85 2.01 29.25-0.01 17.38-0.26 20.2-2.56 29-1.4 5.36-3.76 12.4-5.25 15.64-1.54 3.35-4.53 7.55-6.95 9.75-2.34 2.12-6.39 4.92-9 6.22-2.61 1.3-6.44 2.88-8.5 3.5-3.47 1.06-3.94 1.68-6.39 8.39-1.45 3.99-3.66 9.73-4.9 12.75-1.25 3.02-4.38 9.55-6.97 14.5-2.58 4.95-7.46 12.35-10.84 16.43-3.38 4.09-7.88 8.82-10 10.5-2.11 1.69-6.05 4.98-8.75 7.32-2.69 2.34-7.66 5.71-11.04 7.5-3.38 1.79-7.99 4.23-10.25 5.44-2.26 1.2-8.38 3.6-13.61 5.32-5.23 1.72-14.45 4.41-20.5 5.97-6.05 1.57-17.52 3.77-25.5 4.89-7.98 1.13-19.9 2.62-26.5 3.31-7.53 0.79-27.28 1.27-53 1.29-26.7 0.02-45.71-0.43-54.5-1.29-7.43-0.73-19.8-2.2-27.5-3.29-7.7-1.08-20.53-3.72-28.5-5.88-7.97-2.15-17.65-5.1-21.5-6.54-3.85-1.45-10.83-4.71-15.5-7.23-4.67-2.53-10.97-6.48-14-8.77-3.03-2.3-9.73-8.63-14.9-14.07-5.18-5.45-10.85-12.15-12.62-14.9-1.76-2.75-4.56-7.7-6.21-11-1.64-3.3-3.78-8.48-4.74-11.5-0.97-3.02-2.82-7.98-4.12-11-2.18-5.07-2.85-5.73-8.64-8.4-3.45-1.6-8.86-4.86-12.02-7.25-3.16-2.39-6.94-6.26-8.4-8.6-1.46-2.34-3.49-6.73-4.52-9.75-1.02-3.02-2.57-9.77-3.45-15-1.23-7.31-1.49-14.12-1.14-29.5 0.38-16.36 0.85-21.45 2.63-28 1.19-4.4 3.28-10.36 4.64-13.25 1.77-3.73 4.3-6.7 8.74-10.26 3.44-2.76 8.27-5.77 10.75-6.7 2.48-0.93 5.75-2.61 7.28-3.74 1.53-1.13 3.43-3.85 4.21-6.05 0.79-2.2 3.16-8.72 5.28-14.5 2.15-5.88 6.02-13.8 8.79-17.99 2.72-4.12 9.89-12.48 15.94-18.59 6.05-6.11 13.25-12.58 16-14.39 2.75-1.8 9.05-5.31 14-7.79 4.95-2.48 13.72-5.98 19.5-7.78 5.78-1.8 12.97-3.95 16-4.77 3.03-0.83 9.1-2.2 13.5-3.06 4.4-0.85 12.72-2.25 18.5-3.1 5.78-0.85 11.63-1.55 13-1.57 1.38-0.02 5.43-2.02 9-4.45 3.57-2.42 10.32-5.71 15-7.29 4.68-1.59 12.03-3.52 16.34-4.3 5.79-1.05 8.41-2.04 10-3.78 1.27-1.38 2.47-4.48 2.92-7.5 0.42-2.83 1.2-8.18 1.75-11.89 0.74-5.08 0.68-7.37-0.26-9.27-0.69-1.38-2.56-3.07-4.17-3.75-1.61-0.68-4.7-3.25-6.88-5.73-2.18-2.48-4.58-5.96-5.33-7.75-0.75-1.79-1.37-5.84-1.38-9-0.01-3.16 0.65-8 1.46-10.75 0.93-3.18 2.78-6.27 5.09-8.5 2.3-2.22 6.07-4.32 10.3-5.72 3.66-1.23 7.79-2.23 9.16-2.24zm-62.5 150.5c-8.25 0.9-19.05 2.47-24 3.49-4.95 1.01-11.47 2.49-14.5 3.29-3.03 0.79-8.43 2.68-12 4.19-3.57 1.51-9.88 5.03-14 7.83-4.13 2.8-10.22 7.8-13.54 11.12-3.33 3.32-7.69 8.97-9.69 12.54-2.01 3.57-4.74 9.65-6.08 13.5-1.35 3.85-2.94 9.03-3.55 11.5-0.61 2.47-1.55 7.2-2.09 10.5-0.54 3.3-1.49 13.65-2.1 23-0.8 12.3-0.81 21.7-0.03 34 0.59 9.35 1.78 21.05 2.65 26 0.86 4.95 2.66 12.26 4 16.25 1.34 3.99 3.84 10.06 5.57 13.5 1.72 3.44 5.05 8.73 7.39 11.75 2.35 3.02 5.55 6.66 7.12 8.08 1.57 1.42 5.1 4.02 7.85 5.78 2.75 1.77 8.6 4.98 13 7.15 4.4 2.17 12.28 5.02 17.5 6.35 5.22 1.32 13.78 3.12 19 4 5.22 0.88 13.55 2.06 18.5 2.62 4.95 0.56 21.15 1.55 36 2.21 21.18 0.94 32.72 0.93 53.5-0.04 14.57-0.68 31.45-1.91 37.5-2.73 6.05-0.82 16.63-2.63 23.5-4.02 9.25-1.86 15.49-3.86 24-7.68 6.32-2.85 14.2-7.01 17.5-9.26 3.3-2.25 8.33-6.99 11.18-10.53 2.85-3.53 7.23-10.48 9.75-15.43 2.51-4.95 5.25-11.7 6.08-15 0.83-3.3 2.17-9.82 2.96-14.5 0.8-4.68 1.95-16.15 2.55-25.5 0.78-12.22 0.78-21.35 0.01-32.5-0.6-8.53-1.74-19.78-2.55-25-0.8-5.22-1.88-10.85-2.4-12.5-0.52-1.65-2.26-6.15-3.87-10-1.61-3.85-4.06-9.25-5.45-12-1.39-2.75-4.22-7.03-6.3-9.5-2.07-2.47-6.06-6.34-8.86-8.59-2.81-2.24-8.03-5.7-11.6-7.68-3.57-1.98-9.65-4.8-13.5-6.28-3.85-1.48-11.5-3.77-17-5.08-5.5-1.32-15.18-3.08-21.5-3.92-6.32-0.84-21.18-2.17-33-2.96-11.82-0.8-29.15-1.39-38.5-1.32-9.35 0.07-23.53 0.48-31.5 0.92-7.97 0.45-21.25 1.54-29.5 2.45zm-7 88.18c1.65 0.28 4.57 1.24 6.5 2.14 2.4 1.12 4.19 3.06 5.69 6.14 1.21 2.48 2.67 6.64 3.25 9.25 0.58 2.61 1.07 8.69 1.08 13.5 0.02 5.94-0.63 10.92-2 15.5-1.36 4.56-2.91 7.49-4.77 9.02-1.51 1.25-4.78 2.87-7.25 3.61-3.51 1.05-5.65 1.1-9.75 0.23-4.47-0.95-5.7-1.74-8.3-5.36-1.68-2.34-3.71-6.5-4.51-9.25-0.8-2.75-1.46-8.94-1.45-13.75 0.01-4.81 0.7-11.79 1.55-15.5 0.94-4.1 2.61-8.05 4.25-10.07 1.9-2.34 4.2-3.72 7.71-4.65 2.75-0.72 6.35-1.09 8-0.81zm141.68 0.49c5.87 0.25 7.06 0.65 9.76 3.29 1.7 1.65 4.08 5.25 5.3 8 1.92 4.34 2.21 6.73 2.18 18-0.02 11.22-0.33 13.75-2.3 18.5-1.25 3.02-3.03 6.3-3.95 7.29-0.92 0.98-3.92 2.49-6.67 3.35-4.28 1.34-5.72 1.37-10 0.26-2.75-0.72-6.13-2.26-7.5-3.43-1.38-1.17-3.34-4.34-4.36-7.05-1.18-3.13-2.04-8.74-2.37-15.42-0.31-6.32-0.04-12.69 0.67-16 0.65-3.02 1.94-7.06 2.87-8.97 0.95-1.96 3.43-4.48 5.69-5.79 3.3-1.91 5.17-2.27 10.68-2.03zm-90.68 78.12c4.11 0.19 7.98 1.21 18.54 6.17l5.73-2.96c3.25-1.68 7.9-3.16 10.73-3.41 3.6-0.32 6.82 0.21 11.5 1.9 3.57 1.28 7.62 3.01 9 3.84 1.37 0.83 5.43 3.84 9 6.69 3.57 2.85 8.75 6.15 11.5 7.34 2.75 1.18 6.12 2.12 7.5 2.09 1.37-0.03 3.62-0.7 5-1.49 1.37-0.79 3.29-1.45 4.25-1.46 1.15-0.03 1.76 0.73 1.79 2.21 0.02 1.24-1.44 4.49-3.25 7.22-1.81 2.74-4.86 6.02-6.79 7.3-1.93 1.27-5.98 3.24-9 4.38-4.72 1.77-7 1.99-16 1.54-8.23-0.42-12.44-1.21-19.5-3.66-5.68-1.97-11.21-4.78-15-7.6-3.3-2.46-6.45-4.46-7-4.46-0.55 0.01-3.47 1.86-6.5 4.12-3.03 2.26-7.07 4.79-9 5.62-1.93 0.83-6.2 2.39-9.5 3.45-3.3 1.07-10.28 2.22-15.5 2.56-8.33 0.54-10.42 0.32-17-1.79-4.13-1.32-8.63-3.35-10-4.53-1.38-1.17-3.85-4.07-5.5-6.44-1.65-2.37-3.11-5.58-3.25-7.13-0.2-2.25 0.16-2.83 1.75-2.83 1.1 0 3.24 0.75 4.75 1.67 1.82 1.11 3.94 1.5 6.25 1.14 1.93-0.29 5.97-1.99 9-3.76 3.03-1.77 8.65-5.66 12.5-8.64 3.85-2.97 9.47-6.3 12.5-7.38 3.72-1.34 7.45-1.89 11.5-1.7z"/>
</svg>